<svg xmlns="http://www.w3.org/2000/svg" version="1.1" viewBox="0 0 512 512"><path d="M366.9,380.4c11.2,26.2,28.4,46.1,55.6,51.9c2.7-7.3,13.5-5.3,13.5,2.4v19.1c0,3.9-3.1,7-7,7h-61.7v13H457v-76.1  c-4.6-5.2-10.3-9.5-16.7-12.6c-6.8-3.2-14.4-5-22.5-5h-46.4C369.9,380.2,368.4,380.3,366.9,380.4L366.9,380.4z M422,446.4  c-34-6.1-55.6-30.3-68.9-62.9c-1.4,0.5-2.8,1.1-4.1,1.8c-6.3,3.1-12,7.3-16.7,12.6v76.1h21v-39.1c0-3.9,3.1-7,7-7c3.9,0,7,3.1,7,7  v12.1H422V446.4z M394.6,286.3c-21.2,0-38.5,17.2-38.5,38.5s17.2,38.4,38.5,38.4c21.2,0,38.4-17.2,38.4-38.4  S415.9,286.3,394.6,286.3L394.6,286.3z M357.5,287.7c10-9.9,23.8-15.8,38.9-15.3c11.2-21,17.6-44.1,18.6-68.1h-81.5  c-0.6,33.8-5.5,68.9-15.8,99.1c9.2,1.3,18,2.8,27,4.8C347.5,300.3,351.9,293.4,357.5,287.7L357.5,287.7z M410.9,274.9  c36.9,12,48.6,59.2,20.8,87c-1.8,1.8-3.6,3.4-5.6,4.8c17,2.2,32.5,10.9,43.3,24.2c1,1.3,1.6,2.9,1.6,4.4h0v85.6c0,3.9-3.1,7-7,7  c-138.8,0-277.5,0-416.3,0c-3.9,0-7-3.1-7-7v-85.6c0-1.9,0.7-3.6,2-4.8c6.2-7.4,13.9-13.5,22.7-17.7c6.3-3,13.1-5.1,20.2-6  c-15.5-11.7-23.6-31.2-20.2-51c0.1-0.8,0.3-1.6,0.5-2.4c0-0.1-0.8-1.3-0.8-3.1l0,0v-21.7c0-17.5,11.3-29.2,26.6-35.1  c-21.5-62.9-5-132.2,41.5-178.7c67.7-67.7,177.5-67.7,245.2,0C431.2,127.4,444.4,208.2,410.9,274.9L410.9,274.9z M363.1,366.7  c-7.4-5.5-13.2-13-16.9-21.5c-17.2,10.5-36,18-56,22c13.2,2.3,25.4,8.6,34.9,17.8C335.5,375.1,348.8,368.6,363.1,366.7L363.1,366.7z   M342.5,331l-0.3-9.2c-9.6-2-19.6-3.7-29.5-5c-1.4,3.4-2.9,6.7-4.5,9.8c-0.3,8.4-2.6,16.4-6.4,23.3C316.3,345.5,330,339.2,342.5,331  L342.5,331z M318.2,473.9v-76.1c-4.6-5.2-10.3-9.5-16.7-12.6c-6.8-3.2-14.4-5-22.5-5h-46.4c-8.1,0-15.7,1.8-22.5,5  c-6.4,3.1-12,7.3-16.7,12.6v76.1h21v-39.1c0-3.9,3.1-7,7-7c3.9,0,7,3.1,7,7v39.1h54.7v-39.1c0-3.9,3.1-7,7-7c3.9,0,7,3.1,7,7v39.1  H318.2z M218.4,318.5h-0.5c-3.8,23.5,14.2,44.8,37.9,44.8c23.8,0,41.8-21.3,38-44.8h-6.6c-1.4,0-2.7-0.4-3.7-1.1  c-5.6-3.1-10.9-6.5-16.2-10.3c-3.8-2.7-7.5-5.7-11.2-8.9c-11.1,8.2-22.8,14.8-35.1,19.8C220.1,318.3,219.2,318.4,218.4,318.5  L218.4,318.5z M201.8,280.9c0-14.1,7.9-24.9,19.9-31.6c-1.9-20,13.9-37.4,34.1-37.4c20.2,0,36.1,17.5,34.2,37.4  c12,6.7,19.9,17.6,19.9,31.6c6.1-23.8,9.3-50.1,9.8-76.7H192.1C192.6,230.8,195.8,257.2,201.8,280.9L201.8,280.9z M235.7,243.8  c12.9-3.4,27.5-3.4,40.3,0c-2-16.7-22.5-23.9-34.5-11.9C238.4,235,236.3,239.2,235.7,243.8L235.7,243.8z M289.4,266  c-7.1,8.6-14.5,16.4-22.3,23.2c2.7,2.3,5.5,4.5,8.4,6.5c4.4,3.2,8.9,6.1,13.5,8.7h6.9v-23.6C295.9,274.8,293.6,270,289.4,266  L289.4,266z M215.8,304.5h1.3c12-4.9,23.4-11.6,34.1-20.1c9.2-7.3,17.8-15.8,26-25.6c-14-5.2-31.4-4.7-45.1,1  c-9.3,3.9-16.2,11-16.2,21.1V304.5z M169.1,288.4v19.2l24.8-4.3c-10.3-30.2-15.2-65.3-15.8-99.1H96.6c0.7,15.6,3.6,30.8,8.6,45.4  C132.7,245.3,169.1,256.7,169.1,288.4L169.1,288.4z M154.2,314.7c-21.5-7-52.7-7-74.3,0c-6.5,24.5,11.8,48.5,37.1,48.5  S160.7,339.2,154.2,314.7L154.2,314.7z M155.1,300.4v-12c0-34.2-75.9-34.3-75.9,0v12C102.2,293.9,132.1,293.9,155.1,300.4  L155.1,300.4z M209.8,349.9c-3.8-6.9-6.1-14.9-6.4-23.3c-1.6-3.1-3-6.4-4.5-9.8c-9.5,1.3-20,3.1-29.5,5.1l-0.3,9.2  C181.7,339.2,195.4,345.5,209.8,349.9L209.8,349.9z M186.5,385c9.6-9.2,21.7-15.5,34.9-17.8c-19.9-4-38.7-11.5-56-22  c-3.6,8.6-9.4,16-16.8,21.5C162.9,368.6,176.2,375.1,186.5,385L186.5,385z M75.7,434.7c0-3.9,3.1-7,7-7c3.9,0,7,3.1,7,7v39.1h54.8  v-39.1c0-3.9,3.1-7,7-7c3.9,0,7,3.1,7,7v39.1h21v-76.1c-4.7-5.2-10.3-9.5-16.7-12.6c-6.8-3.2-14.4-5-22.5-5H93.9  c-8.1,0-15.7,1.8-22.5,5c-6.4,3.1-12,7.3-16.7,12.6v76.1h21V434.7z M365.4,81.5c-15.2,4.1-31.1,7.3-47.6,9.6  c9.4,27.5,15.2,61.8,15.8,99.1h81.5C413.3,147.5,394.6,109.1,365.4,81.5L365.4,81.5z M303.6,92.9c-31.6,3.4-63.9,3.4-95.6,0  c-9.4,26.5-15.3,60.3-16,97.3h127.6C319,153.2,313.1,119.4,303.6,92.9L303.6,92.9z M193.9,91.1c-16.5-2.3-32.4-5.6-47.6-9.6  c-29.2,27.6-47.8,66-49.7,108.7h81.4C178.7,152.9,184.5,118.6,193.9,91.1L193.9,91.1z M159.3,70.4c12.8,3.1,26,5.5,39.6,7.3  c6.1-14.6,13.5-26.9,21.8-36C198.1,46.8,177.2,56.8,159.3,70.4L159.3,70.4z M213.5,79.4c27.9,2.7,56.9,2.7,84.8,0  C273.5,24.1,238.2,24.1,213.5,79.4L213.5,79.4z M312.7,77.8c13.6-1.8,26.9-4.3,39.7-7.3c-17.9-13.6-38.7-23.6-61.5-28.7  C299.3,50.9,306.6,63.2,312.7,77.8L312.7,77.8z"/></svg>
