<svg xmlns="http://www.w3.org/2000/svg" version="1.1" viewBox="0 0 512 512"><path d="M418.3,208.7c20.2,0,32.4,22.5,21.5,39.4c6.3,3.5,10.7,5.2,14.2,12.5c1.8,3.8,2.7,8.2,2.6,12.9l-0.7,22.3  c0,4.3-3.1,7.4-7,7.4h-61v0c-3.7,0-6.9-3-7-6.8l-0.7-22.8c-0.3-9,3.4-18.1,11.3-22.4l5.5-3C385.9,231.3,398,208.7,418.3,208.7  L418.3,208.7z M428.3,257.8c-6.4,2.7-13.7,2.7-20,0l-10.2,5.6c-3,1.6-4.1,6.2-4,9.7l0.5,16H442l0.5-16c0.1-3.5-1-8.1-4.1-9.7  L428.3,257.8z M426.5,226.1c-7.3-7.2-19.7-2.1-19.7,8.2c0,10.3,12.4,15.4,19.7,8.2C431,237.9,431,230.6,426.5,226.1L426.5,226.1z   M418.3,185.2c38.4,0,69.6,31.2,69.6,69.6c0,26.2-38,86.2-54.9,114.1c-6.7,11.1-22.6,11.1-29.3,0c-18.5-30.5-54.9-88.3-54.9-114.1  C348.7,216.4,379.9,185.2,418.3,185.2L418.3,185.2z M457.6,215.5c-21.7-21.7-56.9-21.7-78.6,0c-10.1,10.1-16.3,24-16.3,39.3  c0,20,29.5,68.5,49.4,101.2c1.4,2.3,0.3,0.5,0,0c0.2,0.4,1.1,1.8,3.5,5.7c1.2,2,4.3,2,5.5,0l3.5-5.7v0c-0.4,0.7-0.7,1.1,0,0  c19.9-32.7,49.4-81.1,49.4-101.2C473.9,239.5,467.7,225.6,457.6,215.5L457.6,215.5z M424.5,356C426.5,352.8,425.2,354.8,424.5,356  L424.5,356z M412.1,356C412,355.9,412,355.9,412.1,356L412.1,356z M137.7,183.9c23.4,0,36.9,26.5,23.4,45.4  c7.7,4.2,13.3,6.2,17.3,14.7c2,4.3,3.1,9.3,2.9,14.6l-0.9,26.2c0.1,4.3-3,7.3-7,7.3h-71.5v0c-3.7,0-6.8-3-7-6.7L94,258.7  c-0.3-10.1,3.8-20.4,12.6-25.2l7.6-4.2C100.8,210.4,114.3,183.9,137.7,183.9L137.7,183.9z M149.5,238.9c-7.5,3.4-16.1,3.4-23.6,0  l-12.5,6.9c-3.9,2.2-5.5,7.9-5.4,12.5l0.7,20h58.1l0.7-20c0.2-4.6-1.4-10.3-5.4-12.5L149.5,238.9z M148.1,202.3  c-9.3-9.3-25.2-2.7-25.2,10.4s15.9,19.7,25.2,10.4C153.9,217.4,153.9,208,148.1,202.3L148.1,202.3z M137.7,156.4  c32.3,0,60.7,19.1,73.4,47.6h77.4c16.4,0,29.7,13.4,29.7,29.8V384c0,16.4-13.4,29.7-29.7,29.7h-86l26.6,29.1c6.7,0,12.1,2,16.7,6.5  c4,4,6.5,9.6,6.5,15.7v15.2c0,3.9-3.1,7-7,7H96.8c-3.9,0-7-3.1-7-7V465c0-12.2,10-22.2,22.2-22.2h1l26.6-29.1H53.6  c-16.4,0-29.7-13.4-29.7-29.7V233.7c0-16.4,13.4-29.8,29.7-29.8h10.7C77,175.5,105.4,156.4,137.7,156.4L137.7,156.4z M215.9,218  c1.4,6,2.2,12.3,2.2,18.8c0,29.6-41.2,95.2-64.2,133.2c-7.4,12.2-24.9,12.2-32.3,0c-22.4-36.9-64.2-103.5-64.2-133.2  c0-6.5,0.8-12.8,2.2-18.8c-6.6,0-11.8-0.6-17,4.6c-2.8,2.8-4.6,6.8-4.6,11.1V384c0,8.6,7.1,15.7,15.7,15.7c78.3,0,156.6,0,234.9,0  c8.7,0,15.8-7,15.8-15.9c-40.9,6-90.4-2-123.1-27.6c-3-2.4-3.6-6.7-1.2-9.8c2.4-3,6.7-3.6,9.8-1.2c30.2,23.6,77,30.5,114.5,24.5  V233.7c0-8.6-7.1-15.8-15.8-15.8H215.9z M184.6,189.8c-25.9-25.9-67.9-25.9-93.9,0c-12,12-19.4,28.6-19.4,46.9  c0,23.8,34.7,80.9,58.1,119.3c0.9,1.5,0.4,0.7,0,0l0,0l4.1,6.7c1.9,3.1,6.5,3.1,8.5,0c22.2-36.6,62.1-100.5,62.1-126  C204.1,219,197.1,202.3,184.6,189.8L184.6,189.8z M129.4,356.1C129.1,355.6,128.9,355.3,129.4,356.1L129.4,356.1z M351.4,103.2  c-3.3-1.9-4.5-6.2-2.6-9.6c1.9-3.3,6.2-4.5,9.5-2.6c27.3,15.6,49.6,39.2,63.5,67.7c1.7,3.5,0.2,7.7-3.2,9.4  c-3.5,1.7-7.7,0.3-9.4-3.2C396.6,138.9,376.4,117.5,351.4,103.2L351.4,103.2z M362.5,346c3-2.4,7.4-2,9.8,1c2.4,3,2,7.4-1,9.8  c-5.8,4.7-11.7,8.9-18,12.7c-3.3,2-7.6,0.9-9.6-2.4c-2-3.3-0.9-7.6,2.4-9.6C351.8,354.1,357.4,350.2,362.5,346L362.5,346z   M164.5,142.5c-2.3,3.1-6.7,3.7-9.8,1.4c-3.1-2.3-3.7-6.7-1.4-9.8c10.2-13.8,22.7-25.9,36.8-35.7c3.2-2.2,7.5-1.4,9.7,1.8  c2.2,3.2,1.4,7.5-1.8,9.7C185.1,118.9,173.9,129.9,164.5,142.5L164.5,142.5z M193.4,424.5l-9.9-10.8h-24.9l-26.7,29.1h78.2  L193.4,424.5z M230.1,456.8c-39.4,0-78.7,0-118.1,0c-4.5,0-8.2,3.7-8.2,8.2v8.2h134.5V465C238.3,460.5,234.6,456.8,230.1,456.8  L230.1,456.8z M273.5,44.2c17.3,0,28.1,18.8,19.6,33.6c5,2.8,8.4,4.4,11.3,10.4c1.6,3.3,2.4,7.2,2.2,11.3l-0.6,18.9  c0,0.2,0,0.4,0,0.5c7.4-14.4,12.8-27.4,12.8-35.1c0-25.1-20.3-45.4-45.3-45.4c-25,0-45.3,20.3-45.3,45.4c0,7.7,5.4,20.7,12.9,35.1  c0-0.1,0-0.3,0-0.4l-0.6-19.1c-0.3-8,3.1-16,10-19.8l3.5-2C245.5,62.9,256.2,44.2,273.5,44.2L273.5,44.2z M281.8,87.6  c-5.3,2.1-11.3,2.1-16.6,0l-8.1,4.4c-2.1,1.1-2.9,4.6-2.8,7.1l0.4,12.3h37.5l0.4-12.3c0.1-2.4-0.7-6-2.8-7.1L281.8,87.6z   M279.5,60.7c-5.3-5.4-14.5-1.6-14.5,6c0,7.5,9.2,11.3,14.5,6C282.9,69.4,282.9,64,279.5,60.7L279.5,60.7z M303.4,123.8  c-1.2,1-2.7,1.6-4.4,1.6h-51v0c-1.7,0-3.2-0.6-4.4-1.6c8,15,17.8,31,25.7,44.1c0.8,1.3,0.5,0.9,0,0l0,0c0.5,0.9,2.8,4.9,3.5,5.3  c0.5,0.3,1.6,0.3,2.1-0.5l2.9-4.8v0c-0.5,0.9-0.8,1.3,0,0C285.7,154.9,295.4,138.8,303.4,123.8L303.4,123.8z M273.5,24.5  c32.8,0,59.3,26.6,59.3,59.3c0,22.7-33.6,75.5-46.1,96c-6.1,10-20.4,10-26.5,0c-12.4-20.5-46.1-73.4-46.1-96  C214.2,51.1,240.8,24.5,273.5,24.5L273.5,24.5z M277.7,167.9C279.9,164.2,278.6,166.5,277.7,167.9L277.7,167.9z M269.3,167.9  C268.5,166.5,267.1,164.2,269.3,167.9L269.3,167.9z"/></svg>
