<svg xmlns="http://www.w3.org/2000/svg" version="1.1" viewBox="-5 -10 110 110">
 <path d="m89.516 56.289h-16.98v-6.9414c0-0.49219-0.32422-0.92578-0.79688-1.0664l-4.9492-1.4688v-7.6445h0.66406c1.3125 0 2.3789-1.0664 2.3789-2.3789v-1.7617c0-1.3125-1.0664-2.3789-2.3789-2.3789h-1.0078c-1.3398-6.2773-6.7695-10.969-13.176-11.383l-2.1797-10.992c-0.10547-0.51953-0.55859-0.89453-1.0898-0.89453s-0.98438 0.375-1.0898 0.89453l-2.1797 10.992c-6.4062 0.41406-11.836 5.1055-13.176 11.383h-1.0078c-1.3125 0-2.3789 1.0664-2.3789 2.3789v1.7617c0 1.3125 1.0664 2.3789 2.3789 2.3789h0.66406v7.6445l-4.9492 1.4688c-0.47266 0.14062-0.79688 0.57422-0.79688 1.0664v6.9414h-16.98c-0.61328 0-1.1094 0.49609-1.1094 1.1094v32.113c0 0.61328 0.49609 1.1094 1.1094 1.1094h79.027c0.61328 0 1.1094-0.49609 1.1094-1.1094v-32.113c0-0.61328-0.49609-1.1094-1.1094-1.1094zm-1.1094 27.609h-15.867v-1.6641c0-1.2188-0.92187-2.2109-2.1016-2.3516v-17.355c1.1797-0.14062 2.1016-1.1367 2.1016-2.3516v-1.6641h15.867zm-32.492 0v-1.6641c0-1.1758-0.85937-2.1484-1.9844-2.3398v-17.379c1.125-0.19141 1.9844-1.1641 1.9844-2.3398v-1.6641h4.8008v1.6641c0 1.1367 0.80078 2.082 1.8633 2.3203v17.418c-1.0664 0.23828-1.8633 1.1836-1.8633 2.3203v1.6641zm-16.621 0v-1.6641c0-1.1758-0.85938-2.1484-1.9844-2.3398v-17.379c1.125-0.19141 1.9844-1.1641 1.9844-2.3398v-1.6641h4.8008v1.6641c0 1.1758 0.85938 2.1484 1.9844 2.3398v17.379c-1.125 0.19141-1.9844 1.1641-1.9844 2.3398v1.6641zm-7.6172-21.344h3.4102v17.297h-3.4102zm5.3945-2.3789c0 0.085938-0.070312 0.16016-0.16016 0.16016h-7.0625c-0.085937 0-0.16016-0.070313-0.16016-0.16016v-1.6641h7.3789v1.6641zm-7.3789 22.059c0-0.085937 0.070313-0.16016 0.16016-0.16016h7.0625c0.085938 0 0.16016 0.070312 0.16016 0.16016v1.6641h-7.3789v-1.6641zm18.605-19.68h3.4102v17.297h-3.4102zm5.3945-2.3789c0 0.085938-0.070312 0.16016-0.16016 0.16016h-7.0625c-0.085938 0-0.16016-0.070313-0.16016-0.16016v-1.6641h7.3789v1.6641zm-7.3789 22.059c0-0.085937 0.070312-0.16016 0.16016-0.16016h7.0625c0.085938 0 0.16016 0.070312 0.16016 0.16016v1.6641h-7.3789v-1.6641zm18.488-19.68h3.4102v17.297h-3.4102zm5.5156-2.3789c0 0.085938-0.070312 0.16016-0.16016 0.16016h-7.0625c-0.085938 0-0.16016-0.070313-0.16016-0.16016v-1.6641h7.3789v1.6641zm-7.3789 22.059c0-0.085937 0.070312-0.16016 0.16016-0.16016h7.0625c0.085938 0 0.16016 0.070312 0.16016 0.16016v1.6641h-7.3789v-1.6641zm-12.934-66.043 0.99609 5.0273h-1.9961l0.99609-5.0273zm-2.3516 7.25h4.7031c5.5938 0 10.469 3.875 11.828 9.2031h-28.355c1.3594-5.3281 6.2305-9.2031 11.828-9.2031zm-15.266 13.348v-1.7617c0-0.085938 0.070312-0.16016 0.16016-0.16016h34.914c0.085937 0 0.16016 0.070312 0.16016 0.16016v1.7617c0 0.085938-0.070313 0.16016-0.16016 0.16016h-34.914c-0.085937 0-0.16016-0.070313-0.16016-0.16016zm3.043 9.3672v-6.9883h29.141v6.9883l-14.254-4.2266c-0.20703-0.0625-0.42578-0.0625-0.63281 0zm-5.7422 4.0195 20.312-6.0234 20.312 6.0234v6.1133h-40.625zm-18.09 8.3359h15.867v1.6641c0 1.1758 0.85938 2.1484 1.9844 2.3398v17.379c-1.125 0.19141-1.9844 1.1641-1.9844 2.3398v1.6641h-15.867zm76.805 29.895-76.805-0.003906v-2.2852h76.805zm-11.902-7.3633h7.9336c0.61328 0 1.1094-0.49609 1.1094-1.1094v-17.453c0-0.61328-0.49609-1.1094-1.1094-1.1094h-7.9336c-0.61328 0-1.1094 0.49609-1.1094 1.1094v17.453c0 0.61328 0.49609 1.1094 1.1094 1.1094zm1.1094-17.453h5.7109v15.23h-5.7109zm-54.113-2.2227h-7.9336c-0.61328 0-1.1094 0.49609-1.1094 1.1094v17.453c0 0.61328 0.49609 1.1094 1.1094 1.1094h7.9336c0.61328 0 1.1094-0.49609 1.1094-1.1094v-17.453c0-0.61328-0.49609-1.1094-1.1094-1.1094zm-1.1094 17.453h-5.7109v-15.23h5.7109z"/>
</svg>
